# File generated by ImageToStl.com - Free Image and 3D model conversion tools

o obj1
v 2.18729925 0 -1.31605434
v 3.63461685 0 -2.1868763
v 2.31676793 0 -1.0718509
v 3.84975338 0 -1.78108561
v 2.4190743 0 -0.815081
v 4.01975536 0 -1.35441327
v 2.4930191 0 -0.54875505
v 4.14262915 0 -0.9118616
v 2.53773594 0 -0.2759954
v 4.21693468 0 -0.45861927
v 2.55270004 0 -0
v 4.24179983 0 -0
v 2.53773594 0 0.2759954
v 4.21693468 0 0.45861927
v 2.4930191 0 0.54875505
v 4.14262915 0 0.9118616
v 2.4190743 0 0.815081
v 4.01975536 0 1.35441327
v 2.31676793 0 1.0718509
v 3.84975338 0 1.78108561
v 2.18729925 0 1.31605434
v 3.63461685 0 2.1868763
v 2.03218675 0 1.54482818
v 3.37686753 0 2.56702805
v 1.85324872 0 1.75549042
v 3.07952785 0 2.91708374
v 1.652583 0 1.94557106
v 2.74608302 0 3.232939
v 1.4325422 0 2.11284161
v 2.38044333 0 3.5108912
v 1.19570625 0 2.25534129
v 1.98689497 0 3.74768138
v 0.94485164 0 2.37139893
v 1.57005203 0 3.9405334
v 0.68291956 0 2.45965409
v 1.13480163 0 4.08718634
v 0.41298091 0 2.51907206
v 0.68624687 0 4.18592072
v 0.1382004 0 2.54895639
v 0.22964643 0 4.23557901
v -0.1382004 0 2.54895639
v -0.22964643 0 4.23557901
v -0.41298091 0 2.51907206
v -0.68624687 0 4.18592072
v -0.68291956 0 2.45965409
v -1.13480163 0 4.08718634
v -0.94485164 0 2.37139893
v -1.57005203 0 3.9405334
v -1.19570625 0 2.25534129
v -1.98689497 0 3.74768138
v -1.4325422 0 2.11284161
v -2.38044333 0 3.5108912
v -1.652583 0 1.94557106
v -2.74608302 0 3.232939
v -1.85324872 0 1.75549042
v -3.07952785 0 2.91708374
v -2.03218675 0 1.54482818
v -3.37686753 0 2.56702805
v -2.18729925 0 1.31605434
v -3.63461685 0 2.1868763
v -2.31676793 0 1.0718509
v -3.84975338 0 1.78108561
v -2.4190743 0 0.815081
v -4.01975536 0 1.35441327
v -2.4930191 0 0.54875505
v -4.14262915 0 0.9118616
v -2.53773594 0 0.2759954
v -4.21693468 0 0.45861927
v -2.55270004 0 -0
v -4.24179983 0 -0
v -2.53773594 0 -0.2759954
v -4.21693468 0 -0.45861927
v -2.4930191 0 -0.54875505
v -4.14262915 0 -0.9118616
v -2.4190743 0 -0.815081
v -4.01975536 0 -1.35441327
v -2.31676793 0 -1.0718509
v -3.84975338 0 -1.78108561
v -2.18729925 0 -1.31605434
v -3.63461685 0 -2.1868763
v -2.03218675 0 -1.54482818
v -3.37686753 0 -2.56702805
v -1.85324872 0 -1.75549042
v -3.07952785 0 -2.91708374
v -1.652583 0 -1.94557106
v -2.74608302 0 -3.232939
v -1.4325422 0 -2.11284161
v -2.38044333 0 -3.5108912
v -1.19570625 0 -2.25534129
v -1.98689497 0 -3.74768138
v -0.94485164 0 -2.37139893
v -1.57005203 0 -3.9405334
v -0.68291956 0 -2.45965409
v -1.13480163 0 -4.08718634
v -0.41298091 0 -2.51907206
v -0.68624687 0 -4.18592072
v -0.1382004 0 -2.54895639
v -0.22964643 0 -4.23557901
v 0.1382004 0 -2.54895639
v 0.22964643 0 -4.23557901
v 0.41298091 0 -2.51907206
v 0.68624687 0 -4.18592072
v 0.68291956 0 -2.45965409
v 1.13480163 0 -4.08718634
v 0.94485164 0 -2.37139893
v 1.57005203 0 -3.9405334
v 1.19570625 0 -2.25534129
v 1.98689497 0 -3.74768138
v 1.4325422 0 -2.11284161
v 2.38044333 0 -3.5108912
v 1.652583 0 -1.94557106
v 2.74608302 0 -3.232939
v 1.85324872 0 -1.75549042
v 3.07952785 0 -2.91708374
v 2.03218675 0 -1.54482818
v 3.37686753 0 -2.56702805
v 2.31676793 6.3499999 -1.0718509
v 3.84975338 6.3499999 -1.78108561
v 2.18729925 6.3499999 -1.31605434
v 3.63461685 6.3499999 -2.1868763
v 2.03218675 6.3499999 -1.54482818
v 3.37686753 6.3499999 -2.56702805
v 1.85324872 6.3499999 -1.75549042
v 3.07952785 6.3499999 -2.91708374
v 1.652583 6.3499999 -1.94557106
v 2.74608302 6.3499999 -3.232939
v 1.4325422 6.3499999 -2.11284161
v 2.38044333 6.3499999 -3.5108912
v 1.19570625 6.3499999 -2.25534129
v 1.98689497 6.3499999 -3.74768138
v 0.94485164 6.3499999 -2.37139893
v 1.57005203 6.3499999 -3.9405334
v 0.68291956 6.3499999 -2.45965409
v 1.13480163 6.3499999 -4.08718634
v 0.41298091 6.3499999 -2.51907206
v 0.68624687 6.3499999 -4.18592072
v 0.1382004 6.3499999 -2.54895639
v 0.22964643 6.3499999 -4.23557901
v -0.1382004 6.3499999 -2.54895639
v -0.22964643 6.3499999 -4.23557901
v -0.41298091 6.3499999 -2.51907206
v -0.68624687 6.3499999 -4.18592072
v -0.68291956 6.3499999 -2.45965409
v -1.13480163 6.3499999 -4.08718634
v -0.94485164 6.3499999 -2.37139893
v -1.57005203 6.3499999 -3.9405334
v -1.19570625 6.3499999 -2.25534129
v -1.98689497 6.3499999 -3.74768138
v -1.4325422 6.3499999 -2.11284161
v -2.38044333 6.3499999 -3.5108912
v -1.652583 6.3499999 -1.94557106
v -2.74608302 6.3499999 -3.232939
v -1.85324872 6.3499999 -1.75549042
v -3.07952785 6.3499999 -2.91708374
v -2.03218675 6.3499999 -1.54482818
v -3.37686753 6.3499999 -2.56702805
v -2.18729925 6.3499999 -1.31605434
v -3.63461685 6.3499999 -2.1868763
v -2.31676793 6.3499999 -1.0718509
v -3.84975338 6.3499999 -1.78108561
v -2.4190743 6.3499999 -0.815081
v -4.01975536 6.3499999 -1.35441327
v -2.4930191 6.3499999 -0.54875505
v -4.14262915 6.3499999 -0.9118616
v -2.53773594 6.3499999 -0.2759954
v -4.21693468 6.3499999 -0.45861927
v -2.55270004 6.3499999 -0
v -4.24179983 6.3499999 -0
v -2.53773594 6.3499999 0.2759954
v -4.21693468 6.3499999 0.45861927
v -2.4930191 6.3499999 0.54875505
v -4.14262915 6.3499999 0.9118616
v -2.4190743 6.3499999 0.815081
v -4.01975536 6.3499999 1.35441327
v -2.31676793 6.3499999 1.0718509
v -3.84975338 6.3499999 1.78108561
v -2.18729925 6.3499999 1.31605434
v -3.63461685 6.3499999 2.1868763
v -2.03218675 6.3499999 1.54482818
v -3.37686753 6.3499999 2.56702805
v -1.85324872 6.3499999 1.75549042
v -3.07952785 6.3499999 2.91708374
v -1.652583 6.3499999 1.94557106
v -2.74608302 6.3499999 3.232939
v -1.4325422 6.3499999 2.11284161
v -2.38044333 6.3499999 3.5108912
v -1.19570625 6.3499999 2.25534129
v -1.98689497 6.3499999 3.74768138
v -0.94485164 6.3499999 2.37139893
v -1.57005203 6.3499999 3.9405334
v -0.68291956 6.3499999 2.45965409
v -1.13480163 6.3499999 4.08718634
v -0.41298091 6.3499999 2.51907206
v -0.68624687 6.3499999 4.18592072
v -0.1382004 6.3499999 2.54895639
v -0.22964643 6.3499999 4.23557901
v 0.1382004 6.3499999 2.54895639
v 0.22964643 6.3499999 4.23557901
v 0.41298091 6.3499999 2.51907206
v 0.68624687 6.3499999 4.18592072
v 0.68291956 6.3499999 2.45965409
v 1.13480163 6.3499999 4.08718634
v 0.94485164 6.3499999 2.37139893
v 1.57005203 6.3499999 3.9405334
v 1.19570625 6.3499999 2.25534129
v 1.98689497 6.3499999 3.74768138
v 1.4325422 6.3499999 2.11284161
v 2.38044333 6.3499999 3.5108912
v 1.652583 6.3499999 1.94557106
v 2.74608302 6.3499999 3.232939
v 1.85324872 6.3499999 1.75549042
v 3.07952785 6.3499999 2.91708374
v 2.03218675 6.3499999 1.54482818
v 3.37686753 6.3499999 2.56702805
v 2.18729925 6.3499999 1.31605434
v 3.63461685 6.3499999 2.1868763
v 2.31676793 6.3499999 1.0718509
v 3.84975338 6.3499999 1.78108561
v 2.4190743 6.3499999 0.815081
v 4.01975536 6.3499999 1.35441327
v 2.4930191 6.3499999 0.54875505
v 4.14262915 6.3499999 0.9118616
v 2.53773594 6.3499999 0.2759954
v 4.21693468 6.3499999 0.45861927
v 2.55270004 6.3499999 -0
v 4.24179983 6.3499999 -0
v 2.53773594 6.3499999 -0.2759954
v 4.21693468 6.3499999 -0.45861927
v 2.4930191 6.3499999 -0.54875505
v 4.14262915 6.3499999 -0.9118616
v 2.4190743 6.3499999 -0.815081
v 4.01975536 6.3499999 -1.35441327
vn 0 -1 0
vn 0 1 0
vn 0.99853 0 0.05414
vn 0.98683 0 0.16178
vn 0.96355 0 0.26753
vn 0.92898 0 0.37014
vn 0.88351 0 0.46841
vn 0.82769 0 0.56119
vn 0.76216 0 0.64739
vn 0.6877 0 0.726
vn 0.60517 0 0.79609
vn 0.51555 0 0.85686
vn 0.41989 0 0.90758
vn 0.3193 0 0.94765
vn 0.21497 0 0.97662
vn 0.10812 0 0.99414
vn -0 0 1
vn -0.10812 0 0.99414
vn -0.21497 0 0.97662
vn -0.3193 0 0.94765
vn -0.41989 0 0.90758
vn -0.51555 0 0.85686
vn -0.60517 0 0.79609
vn -0.6877 0 0.726
vn -0.76216 0 0.64739
vn -0.82769 0 0.56119
vn -0.88351 0 0.46841
vn -0.92898 0 0.37014
vn -0.96355 0 0.26753
vn -0.98683 0 0.16178
vn -0.99853 0 0.05414
vn -0.99853 -0 0.05414
vn -0.99853 0 -0.05414
vn -0.99853 -0 -0.05414
vn -0.98683 -0 -0.16178
vn -0.96355 -0 -0.26753
vn -0.92898 -0 -0.37014
vn -0.88351 -0 -0.46841
vn -0.82769 -0 -0.56119
vn -0.76216 -0 -0.64739
vn -0.6877 -0 -0.726
vn -0.60517 -0 -0.79609
vn -0.51555 -0 -0.85686
vn -0.41989 -0 -0.90758
vn -0.3193 -0 -0.94765
vn -0.21497 -0 -0.97662
vn -0.10812 -0 -0.99414
vn -0 -0 -1
vn 0.10812 0 -0.99414
vn 0.21497 0 -0.97662
vn 0.3193 0 -0.94765
vn 0.41989 0 -0.90758
vn 0.51555 0 -0.85686
vn 0.60517 0 -0.79609
vn 0.6877 0 -0.726
vn 0.76216 0 -0.64739
vn 0.82769 0 -0.56119
vn 0.88351 0 -0.46841
vn 0.92898 0 -0.37014
vn 0.96355 0 -0.26753
vn 0.98683 0 -0.16178
vn 0.99853 0 -0.05414
vn -0.99853 0 -0.05414
vn -0.98683 -0 -0.16178
vn -0.96355 -0 -0.26753
vn -0.92898 -0 -0.37014
vn -0.88351 -0 -0.46841
vn -0.82769 -0 -0.56119
vn -0.76216 -0 -0.64739
vn -0.6877 -0 -0.726
vn -0.60517 -0 -0.79609
vn -0.51555 -0 -0.85686
vn -0.41989 -0 -0.90758
vn -0.3193 -0 -0.94765
vn -0.21497 -0 -0.97662
vn -0.10812 -0 -0.99414
vn 0.10812 -0 -0.99414
vn 0.21497 -0 -0.97662
vn 0.3193 -0 -0.94765
vn 0.41989 -0 -0.90758
vn 0.51555 -0 -0.85686
vn 0.60517 -0 -0.79609
vn 0.6877 -0 -0.726
vn 0.76216 -0 -0.64739
vn 0.82769 -0 -0.56119
vn 0.88351 -0 -0.46841
vn 0.92898 -0 -0.37014
vn 0.96355 -0 -0.26753
vn 0.98683 -0 -0.16178
vn 0.99853 -0 -0.05414
vn 0.99853 -0 -0.05414
vn 0.99853 0 0.05414
vn 0.99853 0 0.05414
vn 0.98683 0 0.16178
vn 0.96355 0 0.26753
vn 0.92898 0 0.37014
vn 0.88351 0 0.46841
vn 0.82769 0 0.56119
vn 0.76216 0 0.64739
vn 0.6877 0 0.726
vn 0.60517 0 0.79609
vn 0.51555 0 0.85686
vn 0.41989 0 0.90758
vn 0.3193 0 0.94765
vn 0.21497 0 0.97662
vn 0.10812 0 0.99414
vn -0.10812 -0 0.99414
vn -0.21497 -0 0.97662
vn -0.3193 -0 0.94765
vn -0.41989 -0 0.90758
vn -0.51555 -0 0.85686
vn -0.60517 -0 0.79609
vn -0.6877 -0 0.726
vn -0.76216 -0 0.64739
vn -0.82769 -0 0.56119
vn -0.88351 -0 0.46841
vn -0.92898 -0 0.37014
vn -0.96355 -0 0.26753
vn -0.98683 -0 0.16178
vn -0.99853 -0 0.05414
f 1//1 2//1 3//1
f 2//1 4//1 3//1
f 3//1 4//1 5//1
f 4//1 6//1 5//1
f 5//1 6//1 7//1
f 6//1 8//1 7//1
f 7//1 8//1 9//1
f 8//1 10//1 9//1
f 9//1 10//1 11//1
f 10//1 12//1 11//1
f 11//1 12//1 13//1
f 12//1 14//1 13//1
f 13//1 14//1 15//1
f 14//1 16//1 15//1
f 15//1 16//1 17//1
f 16//1 18//1 17//1
f 17//1 18//1 19//1
f 18//1 20//1 19//1
f 19//1 20//1 21//1
f 20//1 22//1 21//1
f 21//1 22//1 23//1
f 22//1 24//1 23//1
f 23//1 24//1 25//1
f 24//1 26//1 25//1
f 25//1 26//1 27//1
f 26//1 28//1 27//1
f 27//1 28//1 29//1
f 28//1 30//1 29//1
f 29//1 30//1 31//1
f 30//1 32//1 31//1
f 31//1 32//1 33//1
f 32//1 34//1 33//1
f 33//1 34//1 35//1
f 34//1 36//1 35//1
f 35//1 36//1 37//1
f 36//1 38//1 37//1
f 37//1 38//1 39//1
f 38//1 40//1 39//1
f 39//1 40//1 41//1
f 40//1 42//1 41//1
f 41//1 42//1 43//1
f 42//1 44//1 43//1
f 43//1 44//1 45//1
f 44//1 46//1 45//1
f 45//1 46//1 47//1
f 46//1 48//1 47//1
f 47//1 48//1 49//1
f 48//1 50//1 49//1
f 49//1 50//1 51//1
f 50//1 52//1 51//1
f 51//1 52//1 53//1
f 52//1 54//1 53//1
f 53//1 54//1 55//1
f 54//1 56//1 55//1
f 55//1 56//1 57//1
f 56//1 58//1 57//1
f 57//1 58//1 59//1
f 58//1 60//1 59//1
f 59//1 60//1 61//1
f 60//1 62//1 61//1
f 61//1 62//1 63//1
f 62//1 64//1 63//1
f 63//1 64//1 65//1
f 64//1 66//1 65//1
f 65//1 66//1 67//1
f 66//1 68//1 67//1
f 67//1 68//1 69//1
f 68//1 70//1 69//1
f 69//1 70//1 71//1
f 70//1 72//1 71//1
f 71//1 72//1 73//1
f 72//1 74//1 73//1
f 73//1 74//1 75//1
f 74//1 76//1 75//1
f 75//1 76//1 77//1
f 76//1 78//1 77//1
f 77//1 78//1 79//1
f 78//1 80//1 79//1
f 79//1 80//1 81//1
f 80//1 82//1 81//1
f 81//1 82//1 83//1
f 82//1 84//1 83//1
f 83//1 84//1 85//1
f 84//1 86//1 85//1
f 85//1 86//1 87//1
f 86//1 88//1 87//1
f 87//1 88//1 89//1
f 88//1 90//1 89//1
f 89//1 90//1 91//1
f 90//1 92//1 91//1
f 91//1 92//1 93//1
f 92//1 94//1 93//1
f 93//1 94//1 95//1
f 94//1 96//1 95//1
f 95//1 96//1 97//1
f 96//1 98//1 97//1
f 97//1 98//1 99//1
f 98//1 100//1 99//1
f 99//1 100//1 101//1
f 100//1 102//1 101//1
f 101//1 102//1 103//1
f 102//1 104//1 103//1
f 103//1 104//1 105//1
f 104//1 106//1 105//1
f 105//1 106//1 107//1
f 106//1 108//1 107//1
f 107//1 108//1 109//1
f 108//1 110//1 109//1
f 109//1 110//1 111//1
f 110//1 112//1 111//1
f 111//1 112//1 113//1
f 112//1 114//1 113//1
f 113//1 114//1 115//1
f 114//1 116//1 115//1
f 115//1 116//1 1//1
f 116//1 2//1 1//1
f 117//2 118//2 119//2
f 118//2 120//2 119//2
f 119//2 120//2 121//2
f 120//2 122//2 121//2
f 121//2 122//2 123//2
f 122//2 124//2 123//2
f 123//2 124//2 125//2
f 124//2 126//2 125//2
f 125//2 126//2 127//2
f 126//2 128//2 127//2
f 127//2 128//2 129//2
f 128//2 130//2 129//2
f 129//2 130//2 131//2
f 130//2 132//2 131//2
f 131//2 132//2 133//2
f 132//2 134//2 133//2
f 133//2 134//2 135//2
f 134//2 136//2 135//2
f 135//2 136//2 137//2
f 136//2 138//2 137//2
f 137//2 138//2 139//2
f 138//2 140//2 139//2
f 139//2 140//2 141//2
f 140//2 142//2 141//2
f 141//2 142//2 143//2
f 142//2 144//2 143//2
f 143//2 144//2 145//2
f 144//2 146//2 145//2
f 145//2 146//2 147//2
f 146//2 148//2 147//2
f 147//2 148//2 149//2
f 148//2 150//2 149//2
f 149//2 150//2 151//2
f 150//2 152//2 151//2
f 151//2 152//2 153//2
f 152//2 154//2 153//2
f 153//2 154//2 155//2
f 154//2 156//2 155//2
f 155//2 156//2 157//2
f 156//2 158//2 157//2
f 157//2 158//2 159//2
f 158//2 160//2 159//2
f 159//2 160//2 161//2
f 160//2 162//2 161//2
f 161//2 162//2 163//2
f 162//2 164//2 163//2
f 163//2 164//2 165//2
f 164//2 166//2 165//2
f 165//2 166//2 167//2
f 166//2 168//2 167//2
f 167//2 168//2 169//2
f 168//2 170//2 169//2
f 169//2 170//2 171//2
f 170//2 172//2 171//2
f 171//2 172//2 173//2
f 172//2 174//2 173//2
f 173//2 174//2 175//2
f 174//2 176//2 175//2
f 175//2 176//2 177//2
f 176//2 178//2 177//2
f 177//2 178//2 179//2
f 178//2 180//2 179//2
f 179//2 180//2 181//2
f 180//2 182//2 181//2
f 181//2 182//2 183//2
f 182//2 184//2 183//2
f 183//2 184//2 185//2
f 184//2 186//2 185//2
f 185//2 186//2 187//2
f 186//2 188//2 187//2
f 187//2 188//2 189//2
f 188//2 190//2 189//2
f 189//2 190//2 191//2
f 190//2 192//2 191//2
f 191//2 192//2 193//2
f 192//2 194//2 193//2
f 193//2 194//2 195//2
f 194//2 196//2 195//2
f 195//2 196//2 197//2
f 196//2 198//2 197//2
f 197//2 198//2 199//2
f 198//2 200//2 199//2
f 199//2 200//2 201//2
f 200//2 202//2 201//2
f 201//2 202//2 203//2
f 202//2 204//2 203//2
f 203//2 204//2 205//2
f 204//2 206//2 205//2
f 205//2 206//2 207//2
f 206//2 208//2 207//2
f 207//2 208//2 209//2
f 208//2 210//2 209//2
f 209//2 210//2 211//2
f 210//2 212//2 211//2
f 211//2 212//2 213//2
f 212//2 214//2 213//2
f 213//2 214//2 215//2
f 214//2 216//2 215//2
f 215//2 216//2 217//2
f 216//2 218//2 217//2
f 217//2 218//2 219//2
f 218//2 220//2 219//2
f 219//2 220//2 221//2
f 220//2 222//2 221//2
f 221//2 222//2 223//2
f 222//2 224//2 223//2
f 223//2 224//2 225//2
f 224//2 226//2 225//2
f 225//2 226//2 227//2
f 226//2 228//2 227//2
f 227//2 228//2 229//2
f 228//2 230//2 229//2
f 229//2 230//2 231//2
f 230//2 232//2 231//2
f 231//2 232//2 117//2
f 232//2 118//2 117//2
f 167//3 69//3 165//3
f 69//3 71//3 165//3
f 165//4 71//4 163//4
f 71//4 73//4 163//4
f 163//5 73//5 161//5
f 73//5 75//5 161//5
f 161//6 75//6 159//6
f 75//6 77//6 159//6
f 159//7 77//7 157//7
f 77//7 79//7 157//7
f 157//8 79//8 155//8
f 79//8 81//8 155//8
f 155//9 81//9 153//9
f 81//9 83//9 153//9
f 153//10 83//10 151//10
f 83//10 85//10 151//10
f 151//11 85//11 149//11
f 85//11 87//11 149//11
f 149//12 87//12 147//12
f 87//12 89//12 147//12
f 147//13 89//13 145//13
f 89//13 91//13 145//13
f 145//14 91//14 143//14
f 91//14 93//14 143//14
f 143//15 93//15 141//15
f 93//15 95//15 141//15
f 141//16 95//16 139//16
f 95//16 97//16 139//16
f 139//17 97//17 137//17
f 97//17 99//17 137//17
f 137//18 99//18 135//18
f 99//18 101//18 135//18
f 135//19 101//19 133//19
f 101//19 103//19 133//19
f 133//20 103//20 131//20
f 103//20 105//20 131//20
f 131//21 105//21 129//21
f 105//21 107//21 129//21
f 129//22 107//22 127//22
f 107//22 109//22 127//22
f 127//23 109//23 125//23
f 109//23 111//23 125//23
f 125//24 111//24 123//24
f 111//24 113//24 123//24
f 123//25 113//25 121//25
f 113//25 115//25 121//25
f 121//26 115//26 119//26
f 115//26 1//26 119//26
f 119//27 1//27 117//27
f 1//27 3//27 117//27
f 117//28 3//28 231//28
f 3//28 5//28 231//28
f 231//29 5//29 229//29
f 5//29 7//29 229//29
f 229//30 7//30 227//30
f 7//30 9//30 227//30
f 227//31 9//31 225//31
f 9//32 11//32 225//32
f 225//33 11//33 223//33
f 11//34 13//34 223//34
f 223//35 13//35 221//35
f 13//35 15//35 221//35
f 221//36 15//36 219//36
f 15//36 17//36 219//36
f 219//37 17//37 217//37
f 17//37 19//37 217//37
f 217//38 19//38 215//38
f 19//38 21//38 215//38
f 215//39 21//39 213//39
f 21//39 23//39 213//39
f 213//40 23//40 211//40
f 23//40 25//40 211//40
f 211//41 25//41 209//41
f 25//41 27//41 209//41
f 209//42 27//42 207//42
f 27//42 29//42 207//42
f 207//43 29//43 205//43
f 29//43 31//43 205//43
f 205//44 31//44 203//44
f 31//44 33//44 203//44
f 203//45 33//45 201//45
f 33//45 35//45 201//45
f 201//46 35//46 199//46
f 35//46 37//46 199//46
f 199//47 37//47 197//47
f 37//47 39//47 197//47
f 197//48 39//48 195//48
f 39//48 41//48 195//48
f 195//49 41//49 193//49
f 41//49 43//49 193//49
f 193//50 43//50 191//50
f 43//50 45//50 191//50
f 191//51 45//51 189//51
f 45//51 47//51 189//51
f 189//52 47//52 187//52
f 47//52 49//52 187//52
f 187//53 49//53 185//53
f 49//53 51//53 185//53
f 185//54 51//54 183//54
f 51//54 53//54 183//54
f 183//55 53//55 181//55
f 53//55 55//55 181//55
f 181//56 55//56 179//56
f 55//56 57//56 179//56
f 179//57 57//57 177//57
f 57//57 59//57 177//57
f 177//58 59//58 175//58
f 59//58 61//58 175//58
f 175//59 61//59 173//59
f 61//59 63//59 173//59
f 173//60 63//60 171//60
f 63//60 65//60 171//60
f 171//61 65//61 169//61
f 65//61 67//61 169//61
f 169//62 67//62 167//62
f 67//62 69//62 167//62
f 70//63 166//63 72//63
f 166//64 164//64 72//64
f 72//64 164//64 74//64
f 164//65 162//65 74//65
f 74//65 162//65 76//65
f 162//66 160//66 76//66
f 76//66 160//66 78//66
f 160//67 158//67 78//67
f 78//67 158//67 80//67
f 158//68 156//68 80//68
f 80//68 156//68 82//68
f 156//69 154//69 82//69
f 82//69 154//69 84//69
f 154//70 152//70 84//70
f 84//70 152//70 86//70
f 152//71 150//71 86//71
f 86//71 150//71 88//71
f 150//72 148//72 88//72
f 88//72 148//72 90//72
f 148//73 146//73 90//73
f 90//73 146//73 92//73
f 146//74 144//74 92//74
f 92//74 144//74 94//74
f 144//75 142//75 94//75
f 94//75 142//75 96//75
f 142//76 140//76 96//76
f 96//76 140//76 98//76
f 140//48 138//48 98//48
f 98//48 138//48 100//48
f 138//77 136//77 100//77
f 100//77 136//77 102//77
f 136//78 134//78 102//78
f 102//78 134//78 104//78
f 134//79 132//79 104//79
f 104//79 132//79 106//79
f 132//80 130//80 106//80
f 106//80 130//80 108//80
f 130//81 128//81 108//81
f 108//81 128//81 110//81
f 128//82 126//82 110//82
f 110//82 126//82 112//82
f 126//83 124//83 112//83
f 112//83 124//83 114//83
f 124//84 122//84 114//84
f 114//84 122//84 116//84
f 122//85 120//85 116//85
f 116//85 120//85 2//85
f 120//86 118//86 2//86
f 2//86 118//86 4//86
f 118//87 232//87 4//87
f 4//87 232//87 6//87
f 232//88 230//88 6//88
f 6//88 230//88 8//88
f 230//89 228//89 8//89
f 8//89 228//89 10//89
f 228//90 226//90 10//90
f 10//91 226//91 12//91
f 226//92 224//92 12//92
f 12//93 224//93 14//93
f 224//94 222//94 14//94
f 14//94 222//94 16//94
f 222//95 220//95 16//95
f 16//95 220//95 18//95
f 220//96 218//96 18//96
f 18//96 218//96 20//96
f 218//97 216//97 20//97
f 20//97 216//97 22//97
f 216//98 214//98 22//98
f 22//98 214//98 24//98
f 214//99 212//99 24//99
f 24//99 212//99 26//99
f 212//100 210//100 26//100
f 26//100 210//100 28//100
f 210//101 208//101 28//101
f 28//101 208//101 30//101
f 208//102 206//102 30//102
f 30//102 206//102 32//102
f 206//103 204//103 32//103
f 32//103 204//103 34//103
f 204//104 202//104 34//104
f 34//104 202//104 36//104
f 202//105 200//105 36//105
f 36//105 200//105 38//105
f 200//106 198//106 38//106
f 38//106 198//106 40//106
f 198//17 196//17 40//17
f 40//17 196//17 42//17
f 196//107 194//107 42//107
f 42//107 194//107 44//107
f 194//108 192//108 44//108
f 44//108 192//108 46//108
f 192//109 190//109 46//109
f 46//109 190//109 48//109
f 190//110 188//110 48//110
f 48//110 188//110 50//110
f 188//111 186//111 50//111
f 50//111 186//111 52//111
f 186//112 184//112 52//112
f 52//112 184//112 54//112
f 184//113 182//113 54//113
f 54//113 182//113 56//113
f 182//114 180//114 56//114
f 56//114 180//114 58//114
f 180//115 178//115 58//115
f 58//115 178//115 60//115
f 178//116 176//116 60//116
f 60//116 176//116 62//116
f 176//117 174//117 62//117
f 62//117 174//117 64//117
f 174//118 172//118 64//118
f 64//118 172//118 66//118
f 172//119 170//119 66//119
f 66//119 170//119 68//119
f 170//120 168//120 68//120
f 68//120 168//120 70//120
f 168//63 166//63 70//63
# Vertices: 232, normals: 120, texture coordinates: 0, faces: 464

